<svg xmlns="http://www.w3.org/2000/svg" viewBox="0 0 850.1 450"><path d="M215.7 386.9c-6.1 2.3-11.4 4.2-16 5.7-4.6 1.4-9.8 2.2-15.7 2.3-10.2.2-18.3-2.1-24.4-6.7-6.1-4.6-10.1-11.5-12-20.6h-1.2c-8.3 9.5-17.3 16.8-26.9 22-9.6 5.1-21.3 7.8-34.9 8-14.5.3-26.4-4-35.9-12.7s-14.3-20.2-14.6-34.5c-.1-7.4.8-14.1 2.8-20 2-5.9 5-11.2 9.1-16 3.2-4 7.4-7.5 12.7-10.7 5.3-3.2 10.3-5.7 14.9-7.6 5.8-2.3 17.6-6.6 35.4-12.9 17.8-6.3 29.8-11.2 36-14.7l-.3-19.3c0-1.7-.4-4.9-1.2-9.7-.8-4.8-2.4-9.3-4.8-13.6-2.7-4.8-6.4-8.9-11.3-12.4-4.8-3.5-11.6-5.2-20.3-5-6 .1-11.5 1.2-16.6 3.3-5.1 2.1-8.7 4.3-10.7 6.5 0 2.6.7 6.4 2.1 11.5 1.3 5.1 2 9.7 2.1 14 .1 4.6-1.9 8.8-5.9 12.6-4 3.8-9.7 5.8-17 6-6.5.1-11.3-2.1-14.5-6.7-3.1-4.6-4.8-9.7-4.9-15.4-.1-6 1.9-11.8 6-17.3s9.5-10.5 16.2-14.9c5.8-3.7 12.8-7 21.1-9.6a81.7 81.7 0 0 1 24.3-4.2c10.9-.2 20.5.4 28.6 1.7 8.2 1.4 15.6 4.4 22.3 9.3 6.7 4.7 11.9 11.2 15.5 19.4 3.6 8.2 5.5 18.8 5.7 31.8.3 18.6.4 35.1.3 49.5-.1 14.4-.1 30.1.2 47.2.1 5.1 1 9.1 2.8 12.1 1.8 3 4.6 5.5 8.2 7.5 2 1.1 5.1 1.7 9.3 1.8 4.2.1 8.6 0 13 0l.5 12.3zm-70-102c-11 3.5-20.7 6.8-28.9 10.1-8.3 3.3-16 7.3-23 12.1-6.4 4.6-11.5 9.9-15.2 16-3.7 6.1-5.4 13.4-5.3 21.7.2 10.8 3.2 18.7 8.9 23.7s13 7.4 21.7 7.3c9.2-.2 17.3-2.6 24.3-7.2s12.8-10 17.5-16.3v-67.4zm250.4 60.3c-7.8 15.5-18.4 27.9-31.8 37.3-13.4 9.3-28.9 14.2-46.4 14.5-15.5.3-29.1-2.2-40.9-7.5-11.7-5.3-21.5-12.5-29.2-21.8-7.7-9.2-13.5-20.1-17.5-32.5-3.9-12.4-6-25.6-6.3-39.5-.2-12.5 1.6-24.8 5.3-36.9 3.8-12.1 9.4-23 16.9-32.8 7.3-9.4 16.3-17 27.2-22.8 10.9-5.9 23.2-8.9 36.9-9.1 14.1-.2 26.1 1.8 36.2 6 10.1 4.3 18.3 10.2 24.7 17.7 6.1 7.2 10.7 15.7 13.8 25.5a113 113 0 0 1 5 32.1l.2 12.9-127.5 2.2c.2 12.7 1.6 24.1 4.2 34.4 2.6 10.3 6.6 19.3 11.9 27 5.2 7.5 12 13.3 20.2 17.6 8.3 4.2 18.1 6.2 29.4 6 11.6-.2 21.5-3.1 29.8-8.7s16.2-15.5 23.8-29.8l14.1 8.2zm-44.4-72.7c-.1-7.3-.9-15-2.3-23.3s-3.5-15.2-6.3-20.7a39.9 39.9 0 0 0-12.6-14.4c-5.3-3.7-12-5.4-20.2-5.3-13.7.2-24.9 6.1-33.8 17.6-8.9 11.5-13.5 27.4-13.9 47.7l89.1-1.6zm203-49.6c.1 6.6-1.4 12.6-4.6 17.8-3.2 5.2-8.1 7.9-14.9 8-7.3.1-12.9-1.7-16.8-5.4-3.9-3.7-5.9-7.8-6-12.4 0-2.9.1-5.5.5-7.8.4-2.4.8-4.7 1.1-7.1-6.1.1-13.2 2.7-21.4 7.8-8.1 5.1-15 12.2-20.5 21.5l2 112.1c.1 4.6 1 8.3 2.8 11.1 1.8 2.8 4.6 4.9 8.4 6.3 3.3 1.2 7.5 2.1 12.6 2.7 5.2.6 9.6.9 13.4 1.1l.2 12.9-101.5 1.8-.2-12.9 9.3-.9c3.2-.3 5.9-.9 8.3-1.7 3.6-1.2 6.3-3.3 8-6.3 1.7-3 2.5-6.8 2.4-11.5l-2.1-118.8c-.1-4-1.1-8-3-11.8-2-3.9-4.6-6.9-8.1-9.2-2.5-1.5-5.5-2.6-8.8-3.3-3.4-.7-7.1-1.1-11-1.3l-.2-12.9 64-5.4 2.8 2.7.5 27.1h1c7.9-10.7 16.7-18.8 26.5-24.5 9.8-5.6 18.8-8.5 27-8.7 8.2-.1 14.9 2.4 20.2 7.7 5.2 5.2 7.9 12.3 8.1 21.3zm103.6 168.3l-93 1.6-.2-12.9 9.3-.9c3.2-.3 5.9-.9 8.3-1.7 3.6-1.2 6.3-3.3 8-6.3 1.7-3 2.5-6.8 2.4-11.5L591 240.7a23.5 23.5 0 0 0-11.1-19.9c-2.5-1.5-6.1-2.8-10.8-3.8-4.7-1-9-1.6-12.9-1.8l-.2-12.9 67.9-5.5 2.8 2.7 2.7 157c.1 4.6 1 8.3 2.8 11.3 1.8 3 4.6 5.1 8.4 6.5 2.9 1.1 5.7 2 8.4 2.7 2.7.7 5.8 1.1 9.1 1.3l.2 12.9zM798.6 296.8c5.4 4.6 9.6 9.9 12.6 16s4.5 13.5 4.7 22.4c.3 17.8-6.1 32.5-19.3 44.1-13.1 11.6-30.3 17.5-51.6 17.9-11.2.2-21.5-1.6-31.1-5.5-9.5-3.9-16.3-7.5-20.4-10.8l-3.7 12.8-14.6.3-3.1-66.9 13.5-.2c1.1 5.1 3.4 11 7 17.7 3.5 6.7 7.7 12.8 12.6 18.2 5.2 5.7 11.3 10.4 18.5 14.2 7.2 3.8 15.2 5.6 24 5.5 12.5-.2 22.1-3.2 28.8-9 6.7-5.8 9.9-14 9.7-24.6-.1-5.5-1.3-10.2-3.5-14.1a30.5 30.5 0 0 0-9.7-10.3c-4.3-2.9-9.7-5.5-16-7.8-6.3-2.3-13.3-4.6-21-6.8-6.2-1.7-13-4.1-20.5-7.2-7.5-3.1-14-6.7-19.4-10.9-5.8-4.5-10.6-10-14.4-16.5-3.8-6.6-5.7-14.4-5.9-23.3-.3-15.8 5.4-29.2 16.9-40.3 11.5-11.1 27.1-16.9 46.8-17.2 7.5-.1 15.3.7 23.2 2.5 7.9 1.8 14.4 4 19.4 6.7l4.3-10.2 14.1-.2 4 61.9-13.5.2c-3-13.8-9.1-25-18.3-33.5-9.2-8.5-20.3-12.7-33.3-12.5-10.7.2-19 3-25.1 8.5-6 5.5-9 12-8.8 19.6.1 5.9 1.2 10.7 3.3 14.6 2.1 3.9 5.2 7.1 9.3 9.8 4 2.5 8.9 4.9 14.9 7.1 6 2.2 13.3 4.6 22.1 7.3 8.6 2.6 16.8 5.6 24.5 9.1 7.7 3.1 14 7 19 11.4zm-207-130h17.6v20.7h-17.6z"/><path d="M625.2 190.6l-52.5 5.1s.3-2 .6-5.1c.3-3.1 50-4.9 51.9 0z"/><path d="M598.7 151.4c-3.9.4-6.9 3.7-6.9 7.7s3 7.3 6.9 7.7h1.1v23.4h-1.1l-25.4.4c.2-38.5-17.3-96.4-17.3-96.4 38.3-51.7 39.7-87.7 39.7-87.7l3-.4"/><path d="M599.8 6.3l3 .4s1.4 36 39.7 87.7c0 0-17.5 57.9-17.3 96.4l-25.4-.4m0-23.5c3.9-.4 6.9-3.7 6.9-7.7s-3-7.3-6.9-7.7"/></svg>